<?xml version="1.0" encoding="UTF-8"?>
<svg xmlns="http://www.w3.org/2000/svg" xmlns:xlink="http://www.w3.org/1999/xlink" width="270px" height="304px" viewBox="0 0 270 303" version="1.1">
<defs>
<clipPath id="clip1">
  <path d="M 54 102.734375 L 216 102.734375 L 216 200.269531 L 54 200.269531 Z M 54 102.734375 "/>
</clipPath>
</defs>
<g id="surface1">
<path style=" stroke:none;fill-rule:nonzero;fill:rgb(100%,0%,0%);fill-opacity:1;" d="M 17.6875 191.242188 L 20.828125 195.164062 L 19.257812 190.066406 C 18.863281 187.714844 16.113281 190.460938 17.6875 191.242188 M 21.222656 188.890625 C 22.402344 190.851562 23.582031 192.8125 23.582031 194.773438 C 23.582031 197.515625 25.9375 198.691406 27.902344 199.476562 C 25.152344 196.339844 23.582031 187.714844 21.222656 188.890625 M 172.140625 22.664062 C 178.820312 22.664062 185.109375 21.878906 192.183594 23.449219 C 209.476562 27.761719 224.015625 36.386719 233.84375 48.539062 L 261.355469 92.449219 C 262.53125 103.425781 264.890625 115.578125 264.496094 128.910156 C 267.25 128.910156 266.855469 124.988281 270 124.203125 C 266.855469 132.042969 265.285156 141.847656 264.496094 153.214844 C 262.53125 146.941406 264.496094 137.535156 264.890625 132.4375 C 262.140625 136.75 260.566406 133.613281 260.566406 131.652344 C 260.960938 128.515625 259.390625 128.90625 258.210938 127.730469 C 253.886719 123.8125 251.136719 119.5 247.992188 112.835938 C 249.957031 107.738281 250.351562 100.289062 244.0625 96.371094 C 242.097656 95.191406 239.738281 93.234375 238.558594 90.097656 C 236.988281 85.785156 234.234375 80.6875 235.023438 74.023438 C 235.414062 72.0625 229.125 78.335938 225.589844 75.589844 C 210.261719 65.007812 194.933594 52.851562 176.460938 42.660156 C 166.636719 42.660156 159.5625 39.128906 156.027344 34.816406 C 152.882812 30.898438 155.238281 25.800781 159.957031 25.410156 C 162.707031 25.410156 165.851562 24.625 168.210938 26.195312 C 168.601562 24.625 170.175781 22.664062 172.140625 22.664062 M 133.230469 13.648438 L 134.019531 14.039062 C 137.949219 14.824219 139.914062 20.3125 144.234375 18.351562 C 144.234375 21.097656 144.628906 23.839844 143.84375 25.800781 C 142.664062 28.9375 139.125 28.9375 136.375 28.9375 C 110.042969 27.371094 94.714844 38.347656 78.601562 47.753906 C 74.28125 50.5 69.5625 52.460938 66.027344 55.988281 C 49.125 71.671875 30.65625 86.175781 26.332031 115.1875 L 22.792969 147.335938 C 22.402344 150.863281 18.472656 154.390625 19.257812 158.703125 L 22.007812 177.914062 C 19.257812 175.167969 17.683594 178.699219 18.472656 180.265625 C 18.863281 181.441406 20.4375 185.363281 22.792969 181.835938 C 25.9375 187.714844 29.082031 199.085938 33.40625 204.179688 C 46.769531 219.863281 64.0625 233.976562 78.210938 248.089844 C 81.746094 247.304688 84.5 247.304688 85.285156 244.953125 C 86.460938 247.304688 84.105469 249.65625 82.140625 250.050781 C 88.429688 253.96875 95.503906 257.5 104.933594 258.28125 C 117.117188 259.066406 128.515625 261.027344 139.125 263.773438 C 144.628906 262.203125 150.132812 261.417969 156.027344 261.027344 C 157.992188 261.027344 159.171875 257.890625 161.527344 257.105469 L 161.921875 253.1875 C 164.28125 256.714844 163.886719 252.011719 162.316406 249.65625 C 165.066406 252.011719 165.851562 253.96875 167.03125 255.539062 C 167.03125 254.363281 170.175781 250.050781 170.175781 255.144531 L 170.960938 250.050781 C 172.140625 249.265625 172.53125 254.363281 173.710938 250.832031 C 174.890625 247.304688 177.25 250.050781 179.605469 248.875 C 178.820312 250.441406 179.214844 253.578125 181.964844 251.617188 L 185.109375 248.875 C 187.074219 253.578125 190.21875 251.617188 191.789062 250.832031 C 209.082031 239.855469 226.375 226.917969 242.882812 213.980469 L 242.488281 219.078125 L 244.453125 212.804688 C 246.417969 214.765625 247.992188 213.199219 248.777344 212.023438 C 251.136719 208.101562 254.277344 204.179688 259.390625 200.652344 C 253.101562 217.511719 245.632812 230.839844 236.199219 241.816406 L 232.269531 246.523438 C 232.269531 249.265625 231.484375 252.792969 228.339844 253.1875 C 226.769531 253.578125 223.625 252.402344 221.265625 254.753906 C 220.089844 256.320312 224.019531 259.457031 220.875 257.105469 C 218.121094 255.144531 215.371094 257.105469 212.226562 257.890625 C 209.867188 258.675781 213.796875 261.027344 214.585938 262.59375 C 215.371094 264.164062 216.15625 265.730469 215.765625 267.691406 L 211.441406 262.988281 C 206.332031 265.730469 203.1875 270.828125 198.863281 274.75 C 196.898438 276.316406 197.6875 279.0625 197.6875 281.414062 C 194.933594 281.414062 191.789062 280.628906 190.21875 282.199219 C 189.039062 283.765625 189.433594 286.117188 189.433594 288.46875 C 185.5 288.078125 185.109375 282.199219 181.574219 283.375 C 178.035156 284.15625 174.105469 284.550781 170.960938 286.511719 C 173.320312 291.214844 167.03125 288.46875 167.816406 289.253906 C 161.921875 285.726562 156.8125 282.980469 150.523438 285.332031 C 137.160156 281.019531 120.65625 282.980469 108.472656 284.550781 C 108.472656 282.589844 108.863281 280.628906 108.078125 280.238281 C 107.292969 282.199219 104.933594 281.414062 105.328125 281.414062 C 97.859375 276.316406 90.394531 273.179688 82.53125 268.867188 C 75.460938 269.652344 68.777344 266.125 66.8125 264.164062 C 61.308594 259.066406 55.023438 261.808594 49.914062 260.632812 C 38.910156 257.890625 34.976562 246.519531 33.800781 238.679688 C 33.011719 234.761719 29.867188 233.191406 28.691406 233.582031 C 23.582031 217.117188 15.722656 202.21875 9.433594 186.929688 C 7.859375 183.011719 8.253906 179.089844 8.253906 174.777344 C 10.21875 175.5625 12.183594 175.167969 11.789062 172.425781 C 9.824219 159.488281 5.109375 149.6875 0 140.277344 C 2.75 126.949219 3.144531 111.265625 9.433594 99.503906 C 14.933594 88.921875 25.152344 83.429688 32.226562 74.414062 C 34.585938 71.277344 34.585938 66.964844 36.945312 64.222656 C 44.804688 56.378906 52.664062 48.148438 61.308594 41.089844 C 65.242188 37.953125 69.957031 41.089844 75.851562 39.914062 C 77.816406 32.859375 85.675781 26.585938 93.144531 28.546875 C 96.289062 29.332031 102.578125 21.097656 104.542969 20.3125 C 107.683594 19.136719 106.113281 23.449219 106.113281 26.195312 C 113.582031 20.3125 123.800781 17.175781 133.230469 13.648438 "/>
<g clip-path="url(#clip1)" clip-rule="nonzero">
<path style=" stroke:none;fill-rule:nonzero;fill:rgb(100%,0%,0%);fill-opacity:1;" d="M 54.011719 117.195312 L 75.21875 117.195312 L 75.21875 200.265625 L 54.011719 200.265625 Z M 118.835938 134.40625 C 123.308594 134.40625 126.839844 136.042969 129.429688 139.308594 C 132.03125 142.574219 133.335938 146.957031 133.335938 152.457031 L 133.335938 200.265625 L 112.964844 200.265625 L 112.964844 154.488281 C 112.964844 151.378906 112.164062 149.828125 110.566406 149.828125 C 109.691406 149.828125 108.769531 150.359375 107.8125 151.429688 C 106.855469 152.511719 105.734375 154.128906 104.457031 156.28125 L 104.457031 200.265625 L 84.085938 200.265625 L 84.085938 136.558594 L 101.820312 136.558594 L 103.257812 143.609375 C 105.414062 140.503906 107.707031 138.191406 110.136719 136.679688 C 112.582031 135.164062 115.480469 134.40625 118.835938 134.40625 Z M 171.675781 136.558594 L 191.449219 136.558594 L 175.992188 200.265625 L 152.027344 200.265625 L 136.089844 136.558594 L 156.941406 136.558594 L 164.007812 185.207031 Z M 194.539062 136.558594 L 214.910156 136.558594 L 214.910156 200.265625 L 194.539062 200.265625 Z M 204.605469 102.734375 C 207.960938 102.734375 210.699219 103.808594 212.824219 105.960938 C 214.933594 108.113281 215.988281 110.78125 215.988281 113.96875 C 215.988281 117.234375 214.933594 119.945312 212.824219 122.097656 C 210.699219 124.246094 207.960938 125.324219 204.605469 125.324219 C 201.25 125.324219 198.535156 124.246094 196.457031 122.097656 C 194.378906 119.945312 193.339844 117.234375 193.339844 113.96875 C 193.339844 110.78125 194.402344 108.113281 196.527344 105.960938 C 198.636719 103.808594 201.328125 102.734375 204.605469 102.734375 Z M 204.605469 102.734375 "/>
</g>
</g>
</svg>
